<?xml version="1.0" encoding="UTF-8"?>
<svg version="1.1" xmlns="http://www.w3.org/2000/svg" width="32" height="32">
<path d="M0 0 C10.56 0 21.12 0 32 0 C32 10.56 32 21.12 32 32 C21.44 32 10.88 32 0 32 C0 21.44 0 10.88 0 0 Z " fill="#050515" transform="translate(0,0)"/>
<path d="M0 0 C1.65 0 3.3 0 5 0 C5 1.98 5 3.96 5 6 C6.32 6 7.64 6 9 6 C9 6.99 9 7.98 9 9 C8.34 9 7.68 9 7 9 C7 10.32 7 11.64 7 13 C7.66 13 8.32 13 9 13 C9 13.99 9 14.98 9 16 C0.42 16 -8.16 16 -17 16 C-17 7 -17 7 -16 6 C-13.30345146 5.92680379 -10.63308542 5.90757463 -7.9375 5.9375 C-7.17888672 5.94201172 -6.42027344 5.94652344 -5.63867188 5.95117188 C-3.75908129 5.9629932 -1.87953101 5.98092922 0 6 C0 4.02 0 2.04 0 0 Z " fill="#666284" transform="translate(21,12)"/>
<path d="M0 0 C10.56 0 21.12 0 32 0 C32.04125 3.568125 32.0825 7.13625 32.125 10.8125 C32.14320801 11.93374268 32.16141602 13.05498535 32.18017578 14.21020508 C32.1851709 15.09603271 32.19016602 15.98186035 32.1953125 16.89453125 C32.21102295 18.25348511 32.21102295 18.25348511 32.22705078 19.63989258 C32 22 32 22 30 25 C29.34 25 28.68 25 28 25 C28 23.68 28 22.36 28 21 C28.66 21 29.32 21 30 21 C29.91621094 20.36191406 29.83242188 19.72382813 29.74609375 19.06640625 C29.64425781 18.24011719 29.54242187 17.41382812 29.4375 16.5625 C29.33308594 15.73878906 29.22867187 14.91507813 29.12109375 14.06640625 C29.08113281 13.38449219 29.04117187 12.70257813 29 12 C29.33 11.67 29.66 11.34 30 11 C30 8.69 30 6.38 30 4 C17.625 4.495 17.625 4.495 5 5 C3.515 11.435 3.515 11.435 2 18 C1.67 18 1.34 18 1 18 C-0.38155385 11.78300769 0 6.74953003 0 0 Z " fill="#020413" transform="translate(0,0)"/>
<path d="M0 0 C8.25 0 16.5 0 25 0 C25 2.31 25 4.62 25 7 C19.06 7 13.12 7 7 7 C7 7.66 7 8.32 7 9 C5.02 9 3.04 9 1 9 C0 7 0 7 0 0 Z " fill="#A4A2AF" transform="translate(5,4)"/>
<path d="M0 0 C0.33 0 0.66 0 1 0 C1.33 2.64 1.66 5.28 2 8 C3.98 8 5.96 8 8 8 C8 7.34 8 6.68 8 6 C14.27 6 20.54 6 27 6 C26.01 6.495 26.01 6.495 25 7 C25 8.98 25 10.96 25 13 C24.01 13 23.02 13 22 13 C22 11.02 22 9.04 22 7 C20.35 7 18.7 7 17 7 C17 8.98 17 10.96 17 13 C9.08 13.495 9.08 13.495 1 14 C0.67 16.64 0.34 19.28 0 22 C-0.33 22 -0.66 22 -1 22 C-1.22415191 19.64640498 -1.42959058 17.29351589 -1.625 14.9375 C-1.74101563 13.62652344 -1.85703125 12.31554687 -1.9765625 10.96484375 C-2.00153472 6.74037732 -1.3471837 3.95413841 0 0 Z " fill="#3B3161" transform="translate(4,5)"/>
<path d="M0 0 C7.92 0 15.84 0 24 0 C24 0.33 24 0.66 24 1 C16.41 1 8.82 1 1 1 C1.99483202 2.21643292 1.99483202 2.21643292 3.94946289 2.11352539 C5.1984436 2.10567017 5.1984436 2.10567017 6.47265625 2.09765625 C7.82133789 2.09282227 7.82133789 2.09282227 9.19726562 2.08789062 C10.61555664 2.07532227 10.61555664 2.07532227 12.0625 2.0625 C13.01189453 2.05798828 13.96128906 2.05347656 14.93945312 2.04882812 C17.29303065 2.0370011 19.64648477 2.02052025 22 2 C22 3.32 22 4.64 22 6 C22.66 6.66 23.32 7.32 24 8 C16.08 8 8.16 8 0 8 C0 5.36 0 2.72 0 0 Z " fill="#D2D1D9" transform="translate(5,19)"/>
<path d="M0 0 C5.94 0 11.88 0 18 0 C18 1.65 18 3.3 18 5 C12.06 5 6.12 5 0 5 C0 3.35 0 1.7 0 0 Z " fill="#F7F7F0" transform="translate(11,5)"/>
<path d="M0 0 C6.27 0 12.54 0 19 0 C18.01 0.495 18.01 0.495 17 1 C17 2.98 17 4.96 17 7 C16.01 7 15.02 7 14 7 C14 5.02 14 3.04 14 1 C12.35 1 10.7 1 9 1 C9 2.98 9 4.96 9 7 C8.67 7 8.34 7 8 7 C8 5.02 8 3.04 8 1 C5.36 1.33 2.72 1.66 0 2 C0 1.34 0 0.68 0 0 Z " fill="#2C1E5B" transform="translate(12,11)"/>
<path d="M0 0 C0.99 0 1.98 0 3 0 C3 1.98 3 3.96 3 6 C2.01 6 1.02 6 0 6 C0 4.02 0 2.04 0 0 Z " fill="#9392AD" transform="translate(22,12)"/>
</svg>
